<?xml version='1.0' encoding='utf-8'?>
<svg xmlns:svg="http://www.w3.org/2000/svg" xmlns:rdf="http://www.w3.org/1999/02/22-rdf-syntax-ns#" xmlns:inkscape="http://www.inkscape.org/namespaces/inkscape" xmlns:dc="http://purl.org/dc/elements/1.1/" xmlns:cc="http://creativecommons.org/ns#" xmlns="http://www.w3.org/2000/svg" xmlns:xlink="http://www.w3.org/1999/xlink" version="1.1" id="svg2" x="0px" y="0px" width="182px" height="291.834px" viewBox="0 0 182 291.834" xml:space="preserve" preserveAspectRatio="xMidYMid meet">
<defs>
	
	</defs>
<g id="g9086" transform="translate(-1746.880086548266,-573.0087829088379)">
</g>
<g id="g9088" transform="translate(-1690.451366548266,-649.6491229088378)">
</g>
<g id="layer2" transform="translate(-1690.451366548266,-649.6491229088378)">
</g>
<g id="g9289" transform="translate(-1690.451366548266,-649.6491229088378)">
</g>
<g id="g37035" transform="matrix(0.9237377118884799,0,0,0.9429539308521999,483.6880577846864,1.575469548636931)">
	<g id="g6354" transform="translate(-60.773519,-125.20693)">
		<g id="g17924">
			<g id="layer1-6" transform="matrix(1.2221,0,0,1.2221,-165.70439,197.10938)">
				<g id="g11519" transform="matrix(0.7444093,0,0,0.8304389999999999,193.26207,73.149234)">
					<g id="g11521" transform="translate(-20.469655,-278.11235)">
						<g id="g12111" transform="matrix(1,0,0,0.9,-94.24011699999998,-7.106950300000002)">
						</g>
					</g>
				</g>
			</g>
		</g>
	</g>
</g>
<g id="Field" transform="matrix(0.22804124,0,0,0.22804124,-2650.692839698353,1488.771754623614)">
</g>
<g id="Trick" transform="matrix(0.22804124,0,0,0.22804124,-2650.692839698353,1488.771754623614)">
</g>
<g id="Border" transform="matrix(0.22804124,0,0,0.22804124,-2650.692839698353,1488.771754623614)">
</g>
<g id="Field-5" transform="matrix(0.22804124,0,0,0.22804124,-2668.430139698353,1464.871054623613)">
</g>
<g id="Trick-0" transform="matrix(0.22804124,0,0,0.22804124,-2668.430139698353,1464.871054623613)">
</g>
<g id="Border-7" transform="matrix(0.22804124,0,0,0.22804124,-2668.430139698353,1464.871054623613)">
</g>
<g id="Field-3" transform="matrix(0.22804124,0,0,0.22804124,-2668.464039698354,1488.055254623614)">
</g>
<g id="Border-5" transform="matrix(0.22804124,0,0,0.22804124,-2668.464039698354,1488.055254623614)">
</g>
<g id="use3104" transform="matrix(0.22804124,0,0,0.22804124,-2668.414139698354,1488.069054623613)">
</g>
<g id="Trick-4" transform="matrix(0.22804124,0,0,0.22804124,-2668.282139698354,1488.018854623613)">
</g>
<g id="Field-2" transform="matrix(0.22804124,0,0,0.22804124,-2668.430139698353,1511.239454623613)">
</g>
<g id="Trick-2" transform="matrix(0.22804124,0,0,0.22804124,-2668.430139698353,1511.239454623613)">
</g>
<g id="Border-1" transform="matrix(0.22804124,0,0,0.22804124,-2668.430139698353,1511.239454623613)">
</g>
<g id="Field-36" transform="matrix(0.22804124,0,0,0.22804124,-2668.430139698353,1534.423654623613)">
</g>
<g id="Trick-08" transform="matrix(0.22804124,0,0,0.22804124,-2668.430139698353,1534.423654623613)">
</g>
<g id="Border-8" transform="matrix(0.22804124,0,0,0.22804124,-2668.430139698353,1534.423654623613)">
</g>
<g id="Field-9" transform="matrix(0.22804124,0,0,0.22804124,-2668.430139698353,1557.607854623614)">
</g>
<g id="Trick-8" transform="matrix(0.22804124,0,0,0.22804124,-2668.430139698353,1557.607854623614)">
</g>
<g id="Border-4" transform="matrix(0.22804124,0,0,0.22804124,-2668.430139698353,1557.607854623614)">
</g>
<g id="Field-1" transform="matrix(0.22804124,0,0,0.22804124,-2650.370139698353,1555.637154623613)">
</g>
<g id="Trick-5" transform="matrix(0.22804124,0,0,0.22804124,-2650.370139698353,1555.637154623613)">
</g>
<g id="Border-9" transform="matrix(0.22804124,0,0,0.22804124,-2650.370139698353,1555.637154623613)">
</g>
<g id="Field-17" transform="matrix(0.22804124,0,0,0.22804124,-2649.725239698354,1533.348954623613)">
</g>
<g id="Trick-1" transform="matrix(0.22804124,0,0,0.22804124,-2649.725239698354,1533.348954623613)">
</g>
<g id="Border-99" transform="matrix(0.22804124,0,0,0.22804124,-2649.725239698354,1533.348954623613)">
</g>
<g id="Field-53" transform="matrix(0.22804124,0,0,0.22804124,-2689.070139698354,1489.775854623613)">
</g>
<g id="Trick-12" transform="matrix(0.22804124,0,0,0.22804124,-2689.070139698354,1489.775854623613)">
</g>
<g id="Border-12" transform="matrix(0.22804124,0,0,0.22804124,-2689.070139698354,1489.775854623613)">
</g>
<g id="Field-94" transform="matrix(0.22804124,0,0,0.22804124,-2648.757639698354,1511.025054623613)">
</g>
<g id="Trick-09" transform="matrix(0.22804124,0,0,0.22804124,-2648.757639698354,1511.025054623613)">
</g>
<g id="Border-51" transform="matrix(0.22804124,0,0,0.22804124,-2648.757639698354,1511.025054623613)">
</g>
<g id="Field-21" transform="matrix(0.22804124,0,0,0.22804124,-2666.172739698353,1582.225854623613)">
</g>
<g id="Trick-46" transform="matrix(0.22804124,0,0,0.22804124,-2666.172739698353,1582.225854623613)">
</g>
<g id="Border-0" transform="matrix(0.22804124,0,0,0.22804124,-2666.172739698353,1582.225854623613)">
</g>
<ellipse id="ellipse5679" fill="black" cx="1322.121" cy="1054.151" rx="0" ry="0"/>
<ellipse id="ellipse5683" fill="#FFFFFF" cx="1322.121" cy="1053.923" rx="0" ry="0"/>
<ellipse id="ellipse5749" fill="black" cx="1353.546" cy="1053.468" rx="0" ry="0"/>
<ellipse id="ellipse5753" fill="#FFFFFF" cx="1353.546" cy="1053.468" rx="0" ry="0"/>
<ellipse id="ellipse5819" fill="black" cx="1337.606" cy="1081.477" rx="0" ry="0"/>
<ellipse id="ellipse5823" fill="#FFFFFF" cx="1337.606" cy="1081.249" rx="0" ry="0"/>
<g id="Field-23" transform="matrix(0.22804124,0,0,0.22804124,-886.3839396983538,1402.608744623613)">
</g>
<g id="Trick-18" transform="matrix(0.22804124,0,0,0.22804124,-886.3839396983538,1402.608744623613)">
</g>
<g id="Border-74" transform="matrix(0.22804124,0,0,0.22804124,-886.3839396983538,1402.608744623613)">
</g>
<g id="Field-5-6" transform="matrix(0.22804124,0,0,0.22804124,-904.1211396983535,1378.708064623613)">
</g>
<g id="Trick-0-3" transform="matrix(0.22804124,0,0,0.22804124,-904.1211396983535,1378.708064623613)">
</g>
<g id="Border-7-8" transform="matrix(0.22804124,0,0,0.22804124,-904.1211396983535,1378.708064623613)">
</g>
<g id="Field-3-5" transform="matrix(0.22804124,0,0,0.22804124,-904.1551396983536,1401.892214623613)">
</g>
<g id="Border-5-0" transform="matrix(0.22804124,0,0,0.22804124,-904.1551396983536,1401.892214623613)">
</g>
<g id="use3104-1" transform="matrix(0.22804124,0,0,0.22804124,-904.1051396983538,1401.906034623613)">
</g>
<g id="Trick-4-2" transform="matrix(0.22804124,0,0,0.22804124,-903.9731396983537,1401.855824623613)">
</g>
<g id="Field-2-4" transform="matrix(0.22804124,0,0,0.22804124,-904.1211396983535,1425.076454623613)">
</g>
<g id="Trick-2-8" transform="matrix(0.22804124,0,0,0.22804124,-904.1211396983535,1425.076454623613)">
</g>
<g id="Border-1-5" transform="matrix(0.22804124,0,0,0.22804124,-904.1211396983535,1425.076454623613)">
</g>
<g id="Field-36-2" transform="matrix(0.22804124,0,0,0.22804124,-904.1211396983535,1448.260654623613)">
</g>
<g id="Trick-08-5" transform="matrix(0.22804124,0,0,0.22804124,-904.1211396983535,1448.260654623613)">
</g>
<g id="Border-8-2" transform="matrix(0.22804124,0,0,0.22804124,-904.1211396983535,1448.260654623613)">
</g>
<g id="Field-9-9" transform="matrix(0.22804124,0,0,0.22804124,-904.1211396983535,1471.444754623613)">
</g>
<g id="Trick-8-1" transform="matrix(0.22804124,0,0,0.22804124,-904.1211396983535,1471.444754623613)">
</g>
<g id="Border-4-3" transform="matrix(0.22804124,0,0,0.22804124,-904.1211396983535,1471.444754623613)">
</g>
<g id="Field-1-1" transform="matrix(0.22804124,0,0,0.22804124,-886.0612396983533,1469.474154623613)">
</g>
<g id="Trick-5-5" transform="matrix(0.22804124,0,0,0.22804124,-886.0612396983533,1469.474154623613)">
</g>
<g id="Border-9-2" transform="matrix(0.22804124,0,0,0.22804124,-886.0612396983533,1469.474154623613)">
</g>
<g id="Field-17-9" transform="matrix(0.22804124,0,0,0.22804124,-885.4163396983534,1447.185954623613)">
</g>
<g id="Trick-1-4" transform="matrix(0.22804124,0,0,0.22804124,-885.4163396983534,1447.185954623613)">
</g>
<g id="Border-99-4" transform="matrix(0.22804124,0,0,0.22804124,-885.4163396983534,1447.185954623613)">
</g>
<g id="Field-53-0" transform="matrix(0.22804124,0,0,0.22804124,-924.7611396983536,1403.612784623613)">
</g>
<g id="Trick-12-7" transform="matrix(0.22804124,0,0,0.22804124,-924.7611396983536,1403.612784623613)">
</g>
<g id="Border-12-4" transform="matrix(0.22804124,0,0,0.22804124,-924.7611396983536,1403.612784623613)">
</g>
<g id="Field-94-7" transform="matrix(0.22804124,0,0,0.22804124,-884.4487396983536,1424.862054623613)">
</g>
<g id="Trick-09-9" transform="matrix(0.22804124,0,0,0.22804124,-884.4487396983536,1424.862054623613)">
</g>
<g id="Border-51-0" transform="matrix(0.22804124,0,0,0.22804124,-884.4487396983536,1424.862054623613)">
</g>
<g id="Field-21-2" transform="matrix(0.22804124,0,0,0.22804124,-901.8637396983533,1496.062854623613)">
</g>
<g id="Trick-46-2" transform="matrix(0.22804124,0,0,0.22804124,-901.8637396983533,1496.062854623613)">
</g>
<g id="Border-0-6" transform="matrix(0.22804124,0,0,0.22804124,-901.8637396983533,1496.062854623613)">
</g>
<path id="path4156" fill="#FFFFFF" d="M0-4.5"/>
<g id="Field-20" transform="matrix(0.22804124,0,0,0.22804124,-2519.962039698354,1990.890954623613)">
</g>
<g id="Trick-3" transform="matrix(0.22804124,0,0,0.22804124,-2519.962039698354,1990.890954623613)">
</g>
<g id="Border-04" transform="matrix(0.22804124,0,0,0.22804124,-2519.962039698354,1990.890954623613)">
</g>
<g id="Field-5-0" transform="matrix(0.22804124,0,0,0.22804124,-2537.699339698353,1966.990354623613)">
</g>
<g id="Trick-0-0" transform="matrix(0.22804124,0,0,0.22804124,-2537.699339698353,1966.990354623613)">
</g>
<g id="Border-7-5" transform="matrix(0.22804124,0,0,0.22804124,-2537.699339698353,1966.990354623613)">
</g>
<g id="Field-3-57" transform="matrix(0.22804124,0,0,0.22804124,-2537.733239698353,1990.174454623613)">
</g>
<g id="Border-5-03" transform="matrix(0.22804124,0,0,0.22804124,-2537.733239698353,1990.174454623613)">
</g>
<g id="use3104-8" transform="matrix(0.22804124,0,0,0.22804124,-2537.683339698353,1990.188354623614)">
</g>
<g id="Trick-4-6" transform="matrix(0.22804124,0,0,0.22804124,-2537.551339698353,1990.138054623613)">
</g>
<g id="Field-2-9" transform="matrix(0.22804124,0,0,0.22804124,-2537.699339698353,2013.358754623614)">
</g>
<g id="Trick-2-1" transform="matrix(0.22804124,0,0,0.22804124,-2537.699339698353,2013.358754623614)">
</g>
<g id="Border-1-0" transform="matrix(0.22804124,0,0,0.22804124,-2537.699339698353,2013.358754623614)">
</g>
<g id="Field-36-0" transform="matrix(0.22804124,0,0,0.22804124,-2537.699339698353,2036.542854623613)">
</g>
<g id="Trick-08-58" transform="matrix(0.22804124,0,0,0.22804124,-2537.699339698353,2036.542854623613)">
</g>
<g id="Border-8-5" transform="matrix(0.22804124,0,0,0.22804124,-2537.699339698353,2036.542854623613)">
</g>
<g id="Field-9-7" transform="matrix(0.22804124,0,0,0.22804124,-2537.699339698353,2059.727054623613)">
</g>
<g id="Trick-8-9" transform="matrix(0.22804124,0,0,0.22804124,-2537.699339698353,2059.727054623613)">
</g>
<g id="Border-4-6" transform="matrix(0.22804124,0,0,0.22804124,-2537.699339698353,2059.727054623613)">
</g>
<g id="Field-1-9" transform="matrix(0.22804124,0,0,0.22804124,-2519.639339698353,2057.756354623613)">
</g>
<g id="Trick-5-6" transform="matrix(0.22804124,0,0,0.22804124,-2519.639339698353,2057.756354623613)">
</g>
<g id="Border-9-28" transform="matrix(0.22804124,0,0,0.22804124,-2519.639339698353,2057.756354623613)">
</g>
<g id="Field-17-8" transform="matrix(0.22804124,0,0,0.22804124,-2518.994439698353,2035.468154623613)">
</g>
<g id="Trick-1-43" transform="matrix(0.22804124,0,0,0.22804124,-2518.994439698353,2035.468154623613)">
</g>
<g id="Border-99-2" transform="matrix(0.22804124,0,0,0.22804124,-2518.994439698353,2035.468154623613)">
</g>
<g id="Field-53-6" transform="matrix(0.22804124,0,0,0.22804124,-2558.339339698353,1991.895054623613)">
</g>
<g id="Trick-12-8" transform="matrix(0.22804124,0,0,0.22804124,-2558.339339698353,1991.895054623613)">
</g>
<g id="Border-12-2" transform="matrix(0.22804124,0,0,0.22804124,-2558.339339698353,1991.895054623613)">
</g>
<g id="Field-94-1" transform="matrix(0.22804124,0,0,0.22804124,-2518.026839698353,2013.144254623613)">
</g>
<g id="Trick-09-8" transform="matrix(0.22804124,0,0,0.22804124,-2518.026839698353,2013.144254623613)">
</g>
<g id="Border-51-3" transform="matrix(0.22804124,0,0,0.22804124,-2518.026839698353,2013.144254623613)">
</g>
<g id="Field-21-6" transform="matrix(0.22804124,0,0,0.22804124,-2535.441939698353,2084.345054623614)">
</g>
<g id="Trick-46-5" transform="matrix(0.22804124,0,0,0.22804124,-2535.441939698353,2084.345054623614)">
</g>
<g id="Border-0-0" transform="matrix(0.22804124,0,0,0.22804124,-2535.441939698353,2084.345054623614)">
</g>
<ellipse id="ellipse5679-0" fill="black" cx="1452.853" cy="1556.271" rx="0" ry="0"/>
<ellipse id="ellipse5683-1" fill="#FFFFFF" cx="1452.853" cy="1556.043" rx="0" ry="0"/>
<ellipse id="ellipse5749-7" fill="black" cx="1484.276" cy="1555.587" rx="0" ry="0"/>
<ellipse id="ellipse5753-0" fill="#FFFFFF" cx="1484.276" cy="1555.587" rx="0" ry="0"/>
<ellipse id="ellipse5819-6" fill="black" cx="1468.337" cy="1583.596" rx="0" ry="0"/>
<ellipse id="ellipse5823-7" fill="#FFFFFF" cx="1468.337" cy="1583.368" rx="0" ry="0"/>
<g id="Field-23-7" transform="matrix(0.22804124,0,0,0.22804124,-755.6530396983537,1904.727954623613)">
</g>
<g id="Trick-18-6" transform="matrix(0.22804124,0,0,0.22804124,-755.6530396983537,1904.727954623613)">
</g>
<g id="Border-74-7" transform="matrix(0.22804124,0,0,0.22804124,-755.6530396983537,1904.727954623613)">
</g>
<g id="Field-5-6-5" transform="matrix(0.22804124,0,0,0.22804124,-773.3902396983537,1880.827254623613)">
</g>
<g id="Trick-0-3-5" transform="matrix(0.22804124,0,0,0.22804124,-773.3902396983537,1880.827254623613)">
</g>
<g id="Border-7-8-3" transform="matrix(0.22804124,0,0,0.22804124,-773.3902396983537,1880.827254623613)">
</g>
<g id="Field-3-5-8" transform="matrix(0.22804124,0,0,0.22804124,-773.4242396983537,1904.011454623613)">
</g>
<g id="Border-5-0-6" transform="matrix(0.22804124,0,0,0.22804124,-773.4242396983537,1904.011454623613)">
</g>
<g id="use3104-1-4" transform="matrix(0.22804124,0,0,0.22804124,-773.3742396983534,1904.025254623613)">
</g>
<g id="Trick-4-2-2" transform="matrix(0.22804124,0,0,0.22804124,-773.2422396983538,1903.975054623613)">
</g>
<g id="Field-2-4-9" transform="matrix(0.22804124,0,0,0.22804124,-773.3902396983537,1927.195654623613)">
</g>
<g id="Trick-2-8-6" transform="matrix(0.22804124,0,0,0.22804124,-773.3902396983537,1927.195654623613)">
</g>
<g id="Border-1-5-9" transform="matrix(0.22804124,0,0,0.22804124,-773.3902396983537,1927.195654623613)">
</g>
<g id="Field-36-2-9" transform="matrix(0.22804124,0,0,0.22804124,-773.3902396983537,1950.379854623613)">
</g>
<g id="Trick-08-5-9" transform="matrix(0.22804124,0,0,0.22804124,-773.3902396983537,1950.379854623613)">
</g>
<g id="Border-8-2-2" transform="matrix(0.22804124,0,0,0.22804124,-773.3902396983537,1950.379854623613)">
</g>
<g id="Field-9-9-9" transform="matrix(0.22804124,0,0,0.22804124,-773.3902396983537,1973.564054623613)">
</g>
<g id="Trick-8-1-2" transform="matrix(0.22804124,0,0,0.22804124,-773.3902396983537,1973.564054623613)">
</g>
<g id="Border-4-3-0" transform="matrix(0.22804124,0,0,0.22804124,-773.3902396983537,1973.564054623613)">
</g>
<g id="Field-1-1-4" transform="matrix(0.22804124,0,0,0.22804124,-755.3303396983535,1971.593354623613)">
</g>
<g id="Trick-5-5-4" transform="matrix(0.22804124,0,0,0.22804124,-755.3303396983535,1971.593354623613)">
</g>
<g id="Border-9-2-8" transform="matrix(0.22804124,0,0,0.22804124,-755.3303396983535,1971.593354623613)">
</g>
<g id="Field-17-9-5" transform="matrix(0.22804124,0,0,0.22804124,-754.6853896983534,1949.305154623613)">
</g>
<g id="Trick-1-4-4" transform="matrix(0.22804124,0,0,0.22804124,-754.6853896983534,1949.305154623613)">
</g>
<g id="Border-99-4-5" transform="matrix(0.22804124,0,0,0.22804124,-754.6853896983534,1949.305154623613)">
</g>
<g id="Field-53-0-7" transform="matrix(0.22804124,0,0,0.22804124,-794.0302396983536,1905.732054623613)">
</g>
<g id="Trick-12-7-5" transform="matrix(0.22804124,0,0,0.22804124,-794.0302396983536,1905.732054623613)">
</g>
<g id="Border-12-4-2" transform="matrix(0.22804124,0,0,0.22804124,-794.0302396983536,1905.732054623613)">
</g>
<g id="Field-94-7-7" transform="matrix(0.22804124,0,0,0.22804124,-753.7178096983534,1926.981254623613)">
</g>
<g id="Trick-09-9-4" transform="matrix(0.22804124,0,0,0.22804124,-753.7178096983534,1926.981254623613)">
</g>
<g id="Border-51-0-2" transform="matrix(0.22804124,0,0,0.22804124,-753.7178096983534,1926.981254623613)">
</g>
<g id="Field-21-2-6" transform="matrix(0.22804124,0,0,0.22804124,-771.1328396983534,1998.182054623614)">
</g>
<g id="Trick-46-2-0" transform="matrix(0.22804124,0,0,0.22804124,-771.1328396983534,1998.182054623614)">
</g>
<g id="Border-0-6-9" transform="matrix(0.22804124,0,0,0.22804124,-771.1328396983534,1998.182054623614)">
</g>
<path id="path4156-2" fill="#FFFFFF" d="M0-4.5"/>
<g id="g4228" transform="translate(138.7720053711232,8.967595210688955)">
	<g id="g4223" transform="matrix(1.266344880121791,0,0,1.266344880121791,35.32188888810447,-75.78375396645282)">
		<path id="path3069" fill="black" stroke="#000000" stroke-width="2.369" d="M-0.552,216.819    c-0.012,35.623-28.9,64.491-64.522,64.479c-35.606-0.012-64.467-28.872-64.478-64.479c0-35.622,28.877-64.5,64.5-64.5    C-29.431,152.319-0.552,181.197-0.552,216.819z"/>
		<path id="path3853" fill="black" stroke="#000000" stroke-width="2.369" d="M-64.493,54.683c-4.971,0-9,4.029-9,9    c0,2.892,1.38,5.447,3.5,7.094v28.906h-31.063c-1.646-2.12-4.202-3.5-7.094-3.5c-4.971,0-9,4.03-9,9c0,4.971,4.029,9,9,9    c2.892,0,5.448-1.38,7.094-3.5h31.063v55.719h11v-55.719h31.032c1.646,2.122,4.231,3.5,7.124,3.5c4.971,0,9-4.029,9-9    c0-4.97-4.029-9-9-9c-2.893,0-5.478,1.378-7.124,3.5h-31.032V70.776c2.119-1.647,3.5-4.202,3.5-7.094    C-55.493,58.712-59.522,54.683-64.493,54.683z"/>
		<path id="path3071" fill="black" stroke="#000000" stroke-width="2.369" d="M-65.056,149.807c-4.659,0-9.202,0.501-13.593,1.406    v48.875c-19.18,1.011-37.12,4.153-52.937,8.938c-0.297,2.557-0.469,5.144-0.469,7.781c0,5.802,0.738,11.443,2.125,16.812    c19.123-5.596,41.268-8.812,64.875-8.812c23.605,0,45.752,3.216,64.875,8.812c1.388-5.372,2.125-11.007,2.125-16.812    c0-2.637-0.173-5.224-0.469-7.781c-15.817-4.785-33.757-7.927-52.937-8.938v-48.875    C-55.853,150.308-60.396,149.807-65.056,149.807z"/>
	</g>
</g>
</svg>
